<?xml version="1.0" encoding="UTF-8"?>
<!DOCTYPE svg PUBLIC "-//W3C//DTD SVG 1.1//EN" "http://www.w3.org/Graphics/SVG/1.1/DTD/svg11.dtd">
<!-- Creator: CorelDRAW X7 -->
<svg xmlns="http://www.w3.org/2000/svg" xml:space="preserve" width="21.6748mm" height="21.604mm" version="1.1" style="shape-rendering:geometricPrecision; text-rendering:geometricPrecision; image-rendering:optimizeQuality; fill-rule:evenodd; clip-rule:evenodd"
viewBox="0 0 791 788"
 xmlns:xlink="http://www.w3.org/1999/xlink">
 <defs>
  <style type="text/css">
   <![CDATA[
    .fil0 {fill:#8ECF44}
   ]]>
  </style>
 </defs>
 <g id="Слой_x0020_1">
  <metadata id="CorelCorpID_0Corel-Layer"/>
  <g id="_836029840">
   <path class="fil0" d="M358 77l0 280c0,26 6,19 63,19 28,0 56,0 84,0 28,0 53,-1 82,-1l188 0c20,0 14,-7 14,-49 0,-16 2,-27 2,-41l-2 -270c0,-8 1,-13 -6,-15 -4,-1 -133,18 -147,20l-257 36c-15,2 -21,4 -21,21z"/>
   <path class="fil0" d="M670 534c1,5 3,11 5,15 7,14 42,3 42,17l0 38c0,16 -35,3 -43,19 0,1 -3,9 -3,9 -5,17 33,27 13,47 -8,8 -16,18 -27,24 -9,-3 -30,-21 -31,-21 -12,0 -21,6 -22,18 -6,34 3,29 -46,29 -5,0 -5,-1 -9,-2 -6,-23 -1,-35 -12,-41 -1,0 -11,-4 -13,-4 -5,0 -25,21 -33,21 -6,0 -33,-26 -33,-34 0,-6 2,-8 5,-12 17,-21 17,-18 11,-32 -10,-23 -44,3 -44,-28 0,-36 -3,-37 18,-39 13,-2 21,-1 25,-10 6,-13 6,-13 -1,-22 -19,-25 -19,-23 -1,-41 9,-10 11,-16 22,-16 13,0 22,31 46,15 13,-9 -2,-43 20,-43 45,0 40,-2 44,24 1,6 0,13 3,17 2,2 4,2 7,4 6,2 2,3 9,3 12,0 24,-20 34,-20 8,0 13,7 18,12 16,17 22,19 9,35 -4,6 -9,12 -13,18zm-312 -103l0 280c0,24 18,21 39,24l368 51c8,1 24,6 24,-4l0 -362c0,-10 -24,-7 -35,-7 -33,0 -108,2 -131,0 -58,-5 -186,-1 -257,-1 -7,0 -8,11 -8,19z"/>
   <path class="fil0" d="M0 417l0 252c0,15 17,12 33,15 89,12 186,24 274,38 5,1 17,5 17,-4l0 -299c0,-13 -63,-9 -77,-9 -24,0 -63,2 -85,0 -26,-3 -94,-2 -127,-2 -12,0 -35,-3 -35,9z"/>
   <path class="fil0" d="M0 117l0 256c0,13 59,5 75,5l172 0c10,0 11,-1 19,-2l43 1c8,0 15,0 15,-8l0 -298c0,-11 -20,-5 -36,-3l-211 30c-13,2 -27,4 -41,6 -12,2 -36,2 -36,13z"/>
   <path class="fil0" d="M547 582c0,9 0,16 7,23 23,25 65,-11 41,-38 -16,-17 -48,-7 -48,15z"/>
  </g>
 </g>
</svg>
