<?xml version="1.0" encoding="UTF-8"?>
<!DOCTYPE svg PUBLIC "-//W3C//DTD SVG 1.1//EN" "http://www.w3.org/Graphics/SVG/1.1/DTD/svg11.dtd">
<!-- Creator: CorelDRAW X7 -->
<svg xmlns="http://www.w3.org/2000/svg" xml:space="preserve" width="21.6747mm" height="20.9127mm" version="1.1" style="shape-rendering:geometricPrecision; text-rendering:geometricPrecision; image-rendering:optimizeQuality; fill-rule:evenodd; clip-rule:evenodd"
viewBox="0 0 342 330"
 xmlns:xlink="http://www.w3.org/1999/xlink">
 <defs>
  <style type="text/css">
   <![CDATA[
    .fil0 {fill:#8ECF44}
   ]]>
  </style>
 </defs>
 <g id="Слой_x0020_1">
  <metadata id="CorelCorpID_0Corel-Layer"/>
  <g id="_670080912">
   <g>
    <path class="fil0" d="M190 318c-4,0 -7,-1 -7,-5 0,-8 11,-7 11,-1 0,3 -2,6 -4,6zm-178 -247c0,-8 11,-7 11,-1 0,9 -11,8 -11,1zm-12 -12l0 266c0,1 2,5 5,5l196 0c4,0 5,-4 5,-5l0 -167 -12 1c0,11 -3,26 -8,35 -3,5 -5,9 -8,14 -13,21 -44,39 -70,39 -43,0 -29,-13 -42,5 8,4 16,3 16,10l0 51c0,3 -2,5 -5,5l-60 0c-3,0 -5,-3 -5,-6l0 -88c0,-4 2,-6 6,-6 4,0 5,3 7,5 1,2 3,4 5,6 3,-2 7,-5 9,-8 -2,-3 -3,-3 -5,-6 -2,-2 -3,-4 -5,-6 -19,-26 -22,-63 -9,-92 5,-8 12,-19 19,-26 1,-1 1,-1 3,-2 8,-7 11,-10 24,-16 10,-4 22,-8 37,-8 4,0 5,0 10,0 0,-4 1,-9 2,-12l-106 0c-5,0 -9,1 -9,6z"/>
    <path class="fil0" d="M80 159c0,-6 0,-8 2,-13 8,-15 26,-17 38,-7 13,13 6,40 -17,41 -6,0 -12,-3 -15,-6 -4,-4 -8,-9 -8,-15zm-57 -4c0,19 6,33 15,47 2,3 6,8 9,10l9 -7c10,-10 18,-22 29,-22 8,0 15,8 15,15 0,9 -14,24 -20,34 1,1 8,2 10,3 16,3 32,0 46,-6 10,-4 21,-13 28,-21 1,-2 3,-4 4,-6 3,-4 5,-8 7,-13 5,-8 8,-22 8,-31 -16,-4 -27,-8 -39,-18 -5,-5 -9,-9 -14,-14 -11,-14 -16,-31 -18,-49 -16,0 -20,-1 -36,4 -5,2 -10,4 -14,7 -14,8 -23,19 -30,33 -5,9 -9,21 -9,34z"/>
    <path class="fil0" d="M248 75c0,-10 -1,-14 -5,-22 -3,-7 -5,-10 -10,-15 -27,-27 -70,-15 -82,16 -10,25 -1,50 22,63 17,11 40,9 56,-4 11,-9 19,-22 19,-38z"/>
    <path class="fil0" d="M196 12c16,0 30,4 41,15l8 7c24,27 17,73 -15,92 -24,15 -56,11 -76,-9l-10 -13c-24,-43 9,-92 52,-92zm-72 61c0,17 5,30 13,42 6,10 19,21 30,26 19,8 40,10 60,0 25,-11 44,-35 44,-64 0,-16 -2,-28 -10,-40 -1,-2 -2,-4 -3,-6 -3,-4 -5,-6 -8,-9 -4,-4 -5,-5 -9,-8 -10,-7 -26,-14 -39,-14 -14,0 -23,0 -37,7 -8,5 -14,9 -21,15 -12,13 -20,33 -20,51z"/>
    <path class="fil0" d="M244 146l66 66c15,15 32,2 32,-10 0,-8 -1,-9 -7,-15l-47 -48c-2,-2 -17,-17 -19,-18 -1,3 -9,11 -11,14l-14 11z"/>
    <path class="fil0" d="M23 307l48 0 0 -41c-10,0 -34,-15 -42,-23 -3,-2 -2,-2 -6,-4l0 68z"/>
    <path class="fil0" d="M39 238c3,0 6,3 8,5 3,2 6,3 8,5 2,-2 3,-4 4,-6 4,-6 29,-40 30,-45l-1 -1c-4,-4 -7,0 -16,9l-16 16c-2,1 -4,3 -6,5 -2,3 -10,9 -11,12z"/>
    <path class="fil0" d="M92 154c0,5 -1,7 3,11 6,6 20,5 20,-11 0,-5 -6,-10 -12,-10 -6,0 -11,5 -11,10z"/>
   </g>
  </g>
 </g>
</svg>
