<?xml version="1.0" encoding="UTF-8"?>
<!DOCTYPE svg PUBLIC "-//W3C//DTD SVG 1.1//EN" "http://www.w3.org/Graphics/SVG/1.1/DTD/svg11.dtd">
<!-- Creator: CorelDRAW 2018 (64-Bit) -->
<svg xmlns="http://www.w3.org/2000/svg" xml:space="preserve" width="84px" height="84px" version="1.1" style="shape-rendering:geometricPrecision; text-rendering:geometricPrecision; image-rendering:optimizeQuality; fill-rule:evenodd; clip-rule:evenodd"
viewBox="0 0 84.03 84.05"
 xmlns:xlink="http://www.w3.org/1999/xlink">
 <defs>
  <style type="text/css">
   <![CDATA[
    .fil1 {fill:#F6F6F7}
    .fil0 {fill:#8ECF44}
   ]]>
  </style>
 </defs>
 <g id="Слой_x0020_1">
  <metadata id="CorelCorpID_0Corel-Layer"/>
  <g id="_734107536">
   <path class="fil0" d="M6.55 17.71l0 39.39c1.27,0.12 2.86,0.63 4.21,0.92l61.11 13.11c0.82,0.18 1.41,0.31 2.21,0.45 0.74,0.13 1.48,0.38 2.24,0.4 0,-5.53 0.19,-10.48 0.19,-16.08 0,-2.88 0.19,-5.02 0.19,-7.85 0,-2.74 0,-5.49 0,-8.24 -0.01,-1.36 0.19,-2.24 0.19,-3.81l0.01 -10.05c0.28,-3.85 0.18,-6.31 0.18,-10.26 0,-2.88 0.18,-5.09 0.18,-8.04l-66.29 9.77c-1.1,0.17 -3.61,0.7 -4.42,0.29l0 0 0 0z"/>
   <path class="fil0" d="M82.33 63.54c-0.33,-0.18 -1.76,-0.4 -2.26,-0.41l0 -1.81c0.83,0.03 1.33,0.2 2.45,0.2 -0.3,0.65 -0.19,1.1 -0.19,2.02l0 0 0 0zm0 -6.04c0.3,0.52 0.19,1.26 0.18,2.06l-0.9 -0.25 -1.53 -0.23 -0.01 -1.78c0.82,0.02 1.18,0.2 2.26,0.2l0 0 0 0zm-2.26 -3.82c0.85,0.02 0.75,0.2 1.69,0.2l0.76 0 0 1.82c-1.08,0 -1.3,-0.21 -2.45,-0.21l0 -1.81zm1.18 -3.81c0.89,0 0.79,0.2 1.27,0l0 2.01c-0.87,-0.22 -1.17,-0.2 -2.26,-0.2l-0.2 -1c0,-0.32 0.01,-0.69 0.01,-1.02 0.42,-0.03 0.24,-0.1 0.75,0 0.33,0.06 0.3,0.12 0.43,0.21zm-1.93 26.93l-14.13 -3.13c-10.71,-2.64 -22.43,-4.83 -33.24,-7.41l-26.07 -5.83c-0.85,-0.17 -1.63,-0.49 -2.52,-0.51l0 -44.83 38.53 -4.94c3.2,-0.51 6.43,-0.86 9.52,-1.26 7.31,-0.95 17,-2.04 24.24,-3.17 1.08,-0.16 4.2,-0.38 4.8,-0.68 0,1.47 0,2.94 0,4.42 0,1.77 -0.2,2.8 -0.19,4.42 0.02,2.97 0.08,6.1 0.01,9.06 -0.04,1.35 -0.2,1.71 -0.2,4.21l-0.18 18.09c0,1.76 -0.2,2.67 -0.19,4.43 0.01,2.43 0.25,7.01 -0.05,9.19l-0.33 17.94 0 0 0 0zm4.53 -73.98l0 -2.7 -0.59 0.09c-1.85,0 -28.1,4.18 -31.14,4.62 -1.76,0.25 -3.53,0.63 -5.24,0.81l-44.26 6.64c-0.76,0.12 -1.86,0.38 -2.63,0.39l0 49.26c0.7,0.06 1.68,0.4 2.28,0.56l26.87 6.59c1.74,0.41 3.16,0.81 4.87,1.2l4.99 1.09c0,0.84 0.04,1.81 0.01,2.62 -0.14,2.73 -0.79,2.24 2.01,3.05 0.62,0.18 1.33,0.5 2.11,0.57 0.48,-0.97 0.38,-0.98 0.37,-2.41 0,-0.98 0.12,-1.94 -0.18,-2.62l29.48 7.2c3.32,0.84 6.61,1.63 9.9,2.45 0,-6.87 0.22,-13.07 0.19,-19.9 -0.01,-1.69 0.18,-2.94 0.18,-4.83 0,-1.67 0,-3.35 0,-5.02 0,-0.8 -0.02,-1.64 0,-2.42 0.03,-1.03 0.2,-1.23 0.2,-2.4l0.37 -24.72c0,-3.21 -0.24,-7.06 0.14,-9.92 0.37,-2.78 -0.09,-7.15 0.07,-10.2l0 0 0 0z"/>
   <path class="fil0" d="M29.62 77c0.92,0.24 1.8,0.58 2.75,0.88 0.56,0.18 0.9,0.24 1.49,0.41l16.1 4.86c1.03,0.32 1.96,0.65 2.92,0.89l-1.94 -3.75c-0.33,-0.75 -0.21,-0.8 -0.9,-1.05 -1.43,-0.52 -5,-1.13 -5.97,-1.63 -0.42,0.3 -0.24,0.03 -0.38,0.6 -1.29,0 -1.9,-0.36 -2.96,-0.65 -0.36,-0.09 -1.07,-0.23 -1.48,-0.42 -0.74,-0.34 -0.51,-0.47 -0.81,-1.14 -0.8,-0.02 -2.29,-0.49 -3.07,-0.73 -1.07,-0.34 -2.07,-0.62 -3.12,-0.88 -0.5,0.36 -0.82,0.77 -1.27,1.26 -0.26,0.28 -0.39,0.43 -0.66,0.7l-0.7 0.65 0 0 0 0z"/>
   <path class="fil0" d="M83.85 2.82c0.08,-0.15 0.11,-0.07 0.15,-0.41 0.01,-0.04 0.01,-0.07 0.01,-0.12l0 -2.15 0 -0.03 0 -0.02 0 -0.03 0 -0.02 0 -0.03 0 0 -0.01 0 0 0 -0.01 0 0 0 -0.01 0 0 0 -0.15 0 -0.01 0c-0.07,0 -0.14,0.01 -0.17,0.01 -0.34,0.11 -0.19,0.06 -0.39,0.19l0.59 -0.09 0 2.71 0 0 0 -0.01z"/>
   <path class="fil0" d="M80.26 51.68l0 -1.81 0.99 0c-0.13,-0.09 -0.1,-0.15 -0.43,-0.21 -0.51,-0.1 -0.33,-0.03 -0.75,0 0,0.33 -0.01,0.7 -0.01,1.02l0.2 1 0 0z"/>
   <path class="fil0" d="M81.61 59.31l0.9 0.25c0.01,-0.8 0.12,-1.54 -0.18,-2.06l0 1.81 -0.72 0 0 0z"/>
  </g>
  <path class="fil1" d="M53.93 18.75l2.98 3.54 2.98 3.54 -1.58 4.36 -1.58 4.35 -4.56 0.81 -4.56 0.8 -1.76 -2.09 -3.24 2.68 -3.03 -3.08 0 0 3.5 -2.9 0 0 -1.43 -1.69 1.58 -4.36 1.58 -4.35 4.56 -0.81 4.56 -0.8zm-14.56 20.68l-7.64 6.33 0.91 1.08 -1.24 3.42 -1.23 3.41 -3.58 0.63 -3.57 0.63 -2.33 -2.77 -2.34 -2.78 1.24 -3.41 1.24 -3.41 3.57 -0.64 3.57 -0.63 0.97 1.15 7.44 -6.14 0 0 2.99 3.13zm-12.53 4.99l1.26 1.5 1.26 1.51 -0.67 1.84 -0.67 1.85 -1.93 0.34 -1.93 0.34 -1.26 -1.5 -1.27 -1.5 0.67 -1.85 0.67 -1.84 1.93 -0.34 1.94 -0.35zm25.72 -21.91l1.69 2.01 1.69 2.01 -0.89 2.47 -0.9 2.47 -2.59 0.46 -2.58 0.46 -1.69 -2.01 -1.7 -2.01 0.9 -2.47 0.9 -2.47 2.58 -0.46 2.59 -0.46z"/>
  <path class="fil1" d="M47.82 39.66l14.21 15.06c0.89,0.94 0.84,2.42 -0.09,3.3l-0.35 0.33 -15.26 -16 -1.62 1.45 15.21 16.13 -0.59 0.56c-0.94,0.88 -2.42,0.84 -3.31,-0.1l-14.21 -15.06c-0.88,-0.93 -0.84,-2.42 0.1,-3.3l0.52 -0.49 -11.42 -12.07 -1.24 1.19 -5.16 -7.1 2.55 -2.52 6.83 5.58 -1.29 1.23 11.45 12.06 0.37 -0.35c0.93,-0.88 2.42,-0.83 3.3,0.1z"/>
 </g>
</svg>
