<svg xmlns="http://www.w3.org/2000/svg" xmlns:xlink="http://www.w3.org/1999/xlink" id="Layer_1" viewBox="0 0 100 100" enable-background="new 0 0 100 100"><path fill="#ffffff" d="M70.2 41.5h4.3v4.3H70.2z" fill-opacity="1" id="path-2" type="solidColor"></path><path fill="#ffffff" d="M42 33c-9.1.0-16.5-7.4-16.5-16.5C25.5 7.4 32.9.0 42 0c9.1.0 16.5 7.4 16.5 16.5C58.5 25.6 51.1 33 42 33zM42 4.3c-6.7.0-12.2 5.5-12.2 12.2.0 6.7 5.5 12.2 12.2 12.2 6.7.0 12.2-5.5 12.2-12.2C54.2 9.8 48.8 4.3 42 4.3z" fill-opacity="1" id="path-3" type="solidColor"></path><path fill="#ffffff" d="M56.4 1e2c-.9.0-1.7-.6-2-1.5l-2.5-7.4c-.1-.4-.5-.7-1-.7h-8.2c-.5.0-.9.3-1 .7l-2.5 7.4c-.3.9-1.1 1.5-2 1.5H24.5c-1 0-1.8-.7-2.1-1.6L19.6 87c-.1-.3-.3-.5-.5-.7C7.5 80.2.0 67.8.0 54.8.0 42.4 6.3 31 17 24.5c.3-.2.7-.3 1.1-.3.8.0 1.4.4 1.8 1 .6 1 .3 2.3-.7 3C9.9 33.9 4.3 43.9 4.3 54.8c0 12 7 23.1 17.8 28.3.0.0.1.1.1.1.1.1.2.1.3.2l.2.2c.1.1.2.1.2.2.0.0.0.1.1.1.0.1.1.1.1.2.1.2.2.3.2.5.0.1.0.1.1.2L26 94.9c.1.5.5.8 1 .8h8c.5.0.9-.3 1-.7l2.5-7.4c.3-.9 1.1-1.5 2-1.5h12.8c.9.0 1.7.6 2 1.5l2.5 7.4c.1.4.5.7 1 .7h8c.5.0.9-.3 1-.8l2.6-10.3c.1-.1.1-.2.2-.3.1-.2.1-.3.2-.4.1-.1.2-.2.3-.3l.1-.1c.1-.1.1-.1.2-.2.1-.1.3-.1.5-.2.1.0.2-.1.3-.1 11.5-3.1 12.6-13.9 12.6-14.1.1-1.1 1-1.9 2.1-1.9h8c.6.0 1-.5 1-1V53.2c0-.6-.5-1-1-1h-5.2c-1.1.0-2-.8-2.1-1.8C85.8 39.2 82 33 74.6 29.6c0 0 0 0-.1-.1-.1-.1-.2-.1-.2-.2-.1.0-.1-.1-.2-.1-.1.0-.1-.1-.2-.1.0.0-.1-.1-.1-.2.0-.1-.1-.1-.1-.2.0-.1-.1-.1-.1-.2.0-.1-.1-.1-.1-.2.0.0.0-.1.0-.2.0-.1.0-.1.0-.2.0-.1.0-.1.0-.2.0-.1.0-.2.0-.2.0.0.0-.1.0-.2.0-.1.0-.1.0-.2.0-.1.0-.2.0-.3.0.0.0-.1.0-.1l4.7-11.6c.1-.3.1-.7-.1-1-.2-.3-.5-.4-.8-.4.0.0.0.0-.1.0-4.9.3-8.1 2.1-9.2 5.1-.3.8-1.1 1.4-2 1.4-.3.0-.5.0-.8-.1-.5-.2-1-.6-1.2-1.1-.2-.5-.3-1.1.0-1.6 2.6-6.9 10.5-7.9 14.9-7.9 1.9.0 3.2.2 3.3.2.7.1 1.2.5 1.5 1 .3.6.4 1.3.1 1.9l-5.3 13.3c-.2.5.0 1 .4 1.3 6.5 4 10.4 10.3 12.2 19.9.1.5.5.9 1 .9h5.6c1.2.0 2.1 1 2.1 2.1v19.1c0 1.2-1 2.1-2.1 2.1h-8.6c-.5.0-.9.3-1 .8-1.1 4-4.3 11.3-13.6 14.5-.3.1-.6.4-.7.7l-2.8 11.1c-.2 1-1.1 1.6-2.1 1.6H56.4z" fill-opacity="1" id="path-4" type="solidColor"></path></svg>