<svg xmlns="http://www.w3.org/2000/svg" width="67" height="68" viewBox="0 0 67 68" id="svg-1"><defs id="defs-2"><style id="style-3">
	.cls-1 { fill-rule: evenodd; }
</style></defs><path id="icons4.svg" class="cls-1" d="M310.645 734.552A2.432 2.432.0 0 0 313.014 737h.573v15.828c0 3.648 1.374 6.6 4.994 6.6s4.993-2.956 4.993-6.6V737H323.6a2.449 2.449.0 0 0 0-4.9H313.014A2.431 2.431.0 0 0 310.645 734.552zm11.04 20.4a1.084 1.084.0 0 1-1.08 1.089h0a1.084 1.084.0 0 1-1.08-1.089V739.176a1.085 1.085.0 0 1 1.08-1.089h0a1.085 1.085.0 0 1 1.08 1.089v15.775zm-4.049.0a1.084 1.084.0 0 1-1.08 1.089h0a1.084 1.084.0 0 1-1.079-1.089V739.176a1.084 1.084.0 0 1 1.079-1.089h0a1.084 1.084.0 0 1 1.08 1.089v15.775zm-1.619-24.48h4.858V713.406l2.23-3.388L320.285 703h-3.96l-2.679 7.019 2.371 3.388v17.065zm9.659 36.432-3.561-7.153a9.054 9.054.0 0 1-3.013.747l1.3 2.614H306.9l-1.191-5.983h6.7a15.339 15.339.0 0 1-.544-1.9H265.049l-5.858 11.725c-.948 2.67 1.836 4.051 4.1 4.051h58.284C323.841 771 327.03 769.744 325.676 766.9zm-31.535 2.736h-12.2a.914.914.0 0 1-.907-.918l.907-2.677a.788.788.0 0 1 .906-.756h10.389a.747.747.0 0 1 .906.694l.906 2.76A.9.9.0 0 1 294.141 769.639zm-29.678-6.528 2.929-5.983H303.92l1.192 5.983H264.463zm46.9 6.969a.885.885.0 1 1 .878-.884A.881.881.0 0 1 311.36 770.08zm3.222.0a.885.885.0 1 1 .877-.884A.881.881.0 0 1 314.582 770.08zm3.222.0a.885.885.0 1 1 .877-.884A.881.881.0 0 1 317.8 770.08zm-47.042-31.1a.579.579.0 0 0 .822.0l9.86-9.936a.588.588.0 0 0 0-.828l-.411-.414a.578.578.0 0 0-.822.0l-9.86 9.936a.59.59.0 0 0 0 .828zm40.976 11.079H267.972V725.3h46.155v-5.168H269.149a3.757 3.757.0 0 0-3.876 3.923v29.8h46.51zm-19.3-29.136a1.623 1.623.0 1 1-1.61 1.623A1.616 1.616.0 0 1 292.434 720.919zM275.692 739.8a.578.578.0 0 0 .822.0l5.752-5.8a.588.588.0 0 0 0-.828l-.411-.414a.578.578.0 0 0-.822.0l-5.751 5.8a.588.588.0 0 0 0 .828zm-4.93-5.8 5.752-5.8a.59.59.0 0 0 0-.829l-.411-.413a.576.576.0 0 0-.821.0l-5.752 5.8a.588.588.0 0 0 0 .828l.41.414A.579.579.0 0 0 270.762 734.008z" transform="translate(-259 -703)" fill="#8ecf44" fill-opacity="1" type="solidColor"></path></svg>