<?xml version="1.0" encoding="UTF-8"?>
<!DOCTYPE svg PUBLIC "-//W3C//DTD SVG 1.1//EN" "http://www.w3.org/Graphics/SVG/1.1/DTD/svg11.dtd">
<!-- Creator: CorelDRAW X7 -->
<svg xmlns="http://www.w3.org/2000/svg" xml:space="preserve" width="17.2026mm" height="22.217mm" version="1.1" style="shape-rendering:geometricPrecision; text-rendering:geometricPrecision; image-rendering:optimizeQuality; fill-rule:evenodd; clip-rule:evenodd"
viewBox="0 0 189 244"
 xmlns:xlink="http://www.w3.org/1999/xlink">
 <defs>
  <style type="text/css">
   <![CDATA[
    .fil0 {fill:#8ECF44}
   ]]>
  </style>
 </defs>
 <g id="Слой_x0020_1">
  <metadata id="CorelCorpID_0Corel-Layer"/>
  <g id="_2191621918592">
   <g id="_2535296086912">
    <path class="fil0" d="M88 24c-2,4 -5,10 -6,16 -1,9 -1,15 1,24 1,3 2,6 4,9 1,3 3,5 4,8 2,2 3,4 5,5 1,2 4,4 4,6 2,0 2,1 4,2 5,4 9,3 9,9 1,37 0,79 0,117 0,8 2,13 6,17 6,6 12,6 16,7l6 -1c8,-1 15,-9 16,-18 1,-7 1,-95 0,-103 0,-6 1,-11 0,-17 0,-4 0,-5 2,-7 2,-1 4,-2 5,-3 15,-9 25,-25 25,-43 1,-14 -3,-18 -6,-28 -4,-4 -3,-7 -15,-17 -1,0 -2,-1 -3,-2 -1,-1 -2,-1 -4,-2 -4,-3 -4,0 -4,0l0 36c0,11 2,9 -8,16l-14 11 -3 -3 -6 -4c-13,-10 -13,-8 -13,-18 0,-13 0,-26 0,-39 -3,-1 -13,7 -15,8l-5 7c-2,2 -3,4 -5,7l0 0z"/>
    <path class="fil0" d="M10 5c0,1 0,1 0,2 -1,0 -1,0 -1,0 -4,5 -7,8 -8,16 -1,6 -1,152 -1,162 0,12 -2,34 3,43 7,14 18,15 32,14 11,0 62,1 68,0 0,-3 -2,-5 -3,-8 -4,-10 -1,-19 -2,-27 -12,-2 -76,2 -80,-1 -4,-3 -4,-7 -4,-13l0 -146c0,-5 0,-9 5,-11 4,-1 43,1 47,0 3,-1 1,-2 3,-4 0,-3 5,-14 7,-17 2,-3 2,-4 5,-7 1,-2 1,-2 2,-3 2,-2 2,-2 3,-4 -5,-1 -12,1 -16,-1 -6,1 -35,0 -45,0 -7,1 -9,3 -13,5 -1,0 0,0 -2,0l0 0z"/>
   </g>
  </g>
 </g>
</svg>
